<svg width="24" height="25" viewBox="0 0 24 25" fill="none" xmlns="http://www.w3.org/2000/svg">
<path d="M16.3154 17.168C15.9248 17.5585 15.9248 18.1917 16.3154 18.5822C16.7059 18.9728 17.339 18.9728 17.7296 18.5822L22.3952 13.9166C23.1762 13.1356 23.1762 11.8692 22.3952 11.0882L17.7267 6.41978C17.3362 6.02926 16.703 6.02926 16.3125 6.41978C15.922 6.81031 15.922 7.44347 16.3125 7.834L19.9786 11.5L2.0001 11.5C1.44781 11.5 1.0001 11.9477 1.0001 12.5C1.0001 13.0523 1.44781 13.5 2.0001 13.5L19.9833 13.5L16.3154 17.168Z" fill="url(#paint0_linear_122_12406)"/>
<defs>
<linearGradient id="paint0_linear_122_12406" x1="22.981" y1="12.501" x2="1.0001" y2="12.501" gradientUnits="userSpaceOnUse">
<stop stop-color="#0579C6"/>
<stop offset="0.734375" stop-color="#5901B1"/>
</linearGradient>
</defs>
</svg>
